<svg width="44" height="44" viewBox="0 0 44 44" fill="none" xmlns="http://www.w3.org/2000/svg">
<path d="M12.0005 23.0313H20.4255V31.4562C20.4255 32.3125 21.1298 33.0307 22 33.0307C22.8701 33.0307 23.5745 32.3125 23.5745 31.4562V23.0313H31.9994C32.8557 23.0313 33.5739 22.3269 33.5739 21.4568C33.5739 20.5866 32.8557 19.8823 31.9994 19.8823H23.5745V11.4573C23.5745 10.601 22.8701 9.88281 22 9.88281C21.1298 9.88281 20.4255 10.601 20.4255 11.4573V19.8823H12.0005C11.1442 19.8823 10.426 20.5866 10.426 21.4568C10.426 22.3269 11.1442 23.0313 12.0005 23.0313Z" fill="#3C3C43" fill-opacity="0.6"/>
</svg>
