<svg width="24" height="23" viewBox="0 0 24 23" fill="none" xmlns="http://www.w3.org/2000/svg">
<path d="M5.57812 22.4961H18.4336C20.8359 22.4961 22.1602 21.207 22.1602 18.8047V7.4375C23.2617 7.14453 23.8828 6.23047 23.8828 4.92969V3.21875C23.8828 1.63672 22.9688 0.617188 21.3867 0.617188H2.625C1.10156 0.617188 0.117188 1.63672 0.117188 3.21875V4.92969C0.117188 6.23047 0.738281 7.14453 1.85156 7.42578V18.8047C1.85156 21.2188 3.16406 22.4961 5.57812 22.4961ZM3.08203 5.41016C2.53125 5.41016 2.30859 5.16406 2.30859 4.625V3.51172C2.30859 2.97266 2.53125 2.72656 3.08203 2.72656H20.9414C21.4805 2.72656 21.7031 2.97266 21.7031 3.51172V4.625C21.7031 5.16406 21.4805 5.41016 20.9414 5.41016H3.08203ZM5.67188 20.293C4.6875 20.293 4.14844 19.7656 4.14844 18.7695V7.51953H19.8633V18.7695C19.8633 19.7656 19.3125 20.293 18.3281 20.293H5.67188ZM8.22656 12.3008H15.7969C16.3477 12.3008 16.7461 11.9141 16.7461 11.3398V10.9648C16.7461 10.3906 16.3477 10.0039 15.7969 10.0039H8.22656C7.67578 10.0039 7.27734 10.3906 7.27734 10.9648V11.3398C7.27734 11.9141 7.67578 12.3008 8.22656 12.3008Z" fill="#3C3C43" fill-opacity="0.6"/>
</svg>
