<svg width="9" height="16" viewBox="0 0 9 16" fill="none" xmlns="http://www.w3.org/2000/svg">
<path d="M8.96191 8.00684C8.96191 7.6665 8.8374 7.38428 8.57178 7.11865L2.18018 0.868164C1.96436 0.652344 1.70703 0.552734 1.3999 0.552734C0.777344 0.552734 0.270996 1.04248 0.270996 1.66504C0.270996 1.97217 0.403809 2.25439 0.62793 2.47852L6.30566 7.99854L0.62793 13.5352C0.403809 13.7593 0.270996 14.0332 0.270996 14.3486C0.270996 14.9712 0.777344 15.4692 1.3999 15.4692C1.70703 15.4692 1.96436 15.3613 2.18018 15.1455L8.57178 8.89502C8.8457 8.62939 8.96191 8.34717 8.96191 8.00684Z" fill="#3C3C43" fill-opacity="0.6"/>
</svg>
