<svg width="15" height="13" viewBox="0 0 15 13" fill="none" xmlns="http://www.w3.org/2000/svg">
<path d="M3.10742 12.4092H11.8862C13.2954 12.4092 14.0381 11.6729 14.0381 10.2827V2.57031C14.0381 1.18018 13.2954 0.4375 11.8862 0.4375H3.10742C1.70459 0.4375 0.955566 1.18018 0.955566 2.57031V10.2827C0.955566 11.6729 1.70459 12.4092 3.10742 12.4092ZM3.15186 11C2.64404 11 2.37109 10.7461 2.37109 10.2065V4.44287C2.37109 3.90967 2.64404 3.65576 3.15186 3.65576H11.8354C12.3433 3.65576 12.6226 3.90967 12.6226 4.44287V10.2065C12.6226 10.7461 12.3433 11 11.8354 11H3.15186ZM6.2876 5.79492H6.66211C6.89062 5.79492 6.9668 5.7251 6.9668 5.49658V5.12207C6.9668 4.89355 6.89062 4.82373 6.66211 4.82373H6.2876C6.05908 4.82373 5.98291 4.89355 5.98291 5.12207V5.49658C5.98291 5.7251 6.05908 5.79492 6.2876 5.79492ZM8.33789 5.79492H8.7124C8.94092 5.79492 9.01709 5.7251 9.01709 5.49658V5.12207C9.01709 4.89355 8.94092 4.82373 8.7124 4.82373H8.33789C8.10938 4.82373 8.0332 4.89355 8.0332 5.12207V5.49658C8.0332 5.7251 8.10938 5.79492 8.33789 5.79492ZM10.3882 5.79492H10.7627C10.9912 5.79492 11.0737 5.7251 11.0737 5.49658V5.12207C11.0737 4.89355 10.9912 4.82373 10.7627 4.82373H10.3882C10.1597 4.82373 10.0835 4.89355 10.0835 5.12207V5.49658C10.0835 5.7251 10.1597 5.79492 10.3882 5.79492ZM4.2373 7.81348H4.61182C4.84033 7.81348 4.9165 7.74365 4.9165 7.51514V7.14062C4.9165 6.91211 4.84033 6.84229 4.61182 6.84229H4.2373C4.00879 6.84229 3.92627 6.91211 3.92627 7.14062V7.51514C3.92627 7.74365 4.00879 7.81348 4.2373 7.81348ZM6.2876 7.81348H6.66211C6.89062 7.81348 6.9668 7.74365 6.9668 7.51514V7.14062C6.9668 6.91211 6.89062 6.84229 6.66211 6.84229H6.2876C6.05908 6.84229 5.98291 6.91211 5.98291 7.14062V7.51514C5.98291 7.74365 6.05908 7.81348 6.2876 7.81348ZM8.33789 7.81348H8.7124C8.94092 7.81348 9.01709 7.74365 9.01709 7.51514V7.14062C9.01709 6.91211 8.94092 6.84229 8.7124 6.84229H8.33789C8.10938 6.84229 8.0332 6.91211 8.0332 7.14062V7.51514C8.0332 7.74365 8.10938 7.81348 8.33789 7.81348ZM10.3882 7.81348H10.7627C10.9912 7.81348 11.0737 7.74365 11.0737 7.51514V7.14062C11.0737 6.91211 10.9912 6.84229 10.7627 6.84229H10.3882C10.1597 6.84229 10.0835 6.91211 10.0835 7.14062V7.51514C10.0835 7.74365 10.1597 7.81348 10.3882 7.81348ZM4.2373 9.83203H4.61182C4.84033 9.83203 4.9165 9.76221 4.9165 9.53369V9.15918C4.9165 8.93066 4.84033 8.86084 4.61182 8.86084H4.2373C4.00879 8.86084 3.92627 8.93066 3.92627 9.15918V9.53369C3.92627 9.76221 4.00879 9.83203 4.2373 9.83203ZM6.2876 9.83203H6.66211C6.89062 9.83203 6.9668 9.76221 6.9668 9.53369V9.15918C6.9668 8.93066 6.89062 8.86084 6.66211 8.86084H6.2876C6.05908 8.86084 5.98291 8.93066 5.98291 9.15918V9.53369C5.98291 9.76221 6.05908 9.83203 6.2876 9.83203ZM8.33789 9.83203H8.7124C8.94092 9.83203 9.01709 9.76221 9.01709 9.53369V9.15918C9.01709 8.93066 8.94092 8.86084 8.7124 8.86084H8.33789C8.10938 8.86084 8.0332 8.93066 8.0332 9.15918V9.53369C8.0332 9.76221 8.10938 9.83203 8.33789 9.83203Z" fill="#3C3C43" fill-opacity="0.6"/>
</svg>
