<svg width="19" height="11" viewBox="0 0 19 11" fill="none" xmlns="http://www.w3.org/2000/svg">
<path d="M0.0102539 9.96191C0.0102539 10.4443 0.403809 10.8379 0.879883 10.8379H18.1201C18.5962 10.8379 18.9897 10.4443 18.9897 9.96191C18.9897 9.48584 18.5962 9.09229 18.1201 9.09229H16.8125V1.64014C16.8125 0.580078 16.2222 0.00244141 15.1685 0.00244141H3.83789C2.80957 0.00244141 2.1875 0.580078 2.1875 1.64014V9.09229H0.879883C0.403809 9.09229 0.0102539 9.48584 0.0102539 9.96191ZM3.60303 9.09229V2.00195C3.60303 1.60205 3.7998 1.41797 4.18701 1.41797H14.813C15.2002 1.41797 15.397 1.60205 15.397 2.00195V9.09229H3.60303Z" fill="#3C3C43" fill-opacity="0.6"/>
</svg>
