<svg width="18" height="18" viewBox="0 0 18 18" fill="none" xmlns="http://www.w3.org/2000/svg">
    <path
        d="M8.95264 17.4736C13.5845 17.4736 17.4194 13.6304 17.4194 9.00684C17.4194 4.375 13.5762 0.540039 8.94434 0.540039C4.3208 0.540039 0.48584 4.375 0.48584 9.00684C0.48584 13.6304 4.3291 17.4736 8.95264 17.4736ZM8.95264 10.5508C8.521 10.5508 8.28027 10.3101 8.27197 9.87012L8.16406 5.34619C8.15576 4.90625 8.47949 4.59082 8.94434 4.59082C9.40088 4.59082 9.74121 4.91455 9.73291 5.35449L9.6167 9.87012C9.6084 10.3184 9.36768 10.5508 8.95264 10.5508ZM8.95264 13.3315C8.45459 13.3315 8.02295 12.9331 8.02295 12.4434C8.02295 11.9536 8.44629 11.5469 8.95264 11.5469C9.45898 11.5469 9.88232 11.9453 9.88232 12.4434C9.88232 12.9414 9.45068 13.3315 8.95264 13.3315Z"
        fill="#FF3B30" />
</svg>