<svg width="24" height="24" viewBox="0 0 24 24" fill="none"
  xmlns="http://www.w3.org/2000/svg">
  <path d="M11.8359 22.0371C17.3535 22.0371 21.9238 17.4766 21.9238 11.9492C21.9238 6.43164 17.3535 1.86133 11.8262 1.86133C6.30859 1.86133 1.74805 6.43164 1.74805 11.9492C1.74805 17.4766 6.31836 22.0371 11.8359 22.0371ZM11.8359 20.0547C7.34375 20.0547 3.74023 16.4414 3.74023 11.9492C3.74023 7.45703 7.33398 3.85352 11.8262 3.85352C16.3184 3.85352 19.9414 7.45703 19.9414 11.9492C19.9414 16.4414 16.3281 20.0547 11.8359 20.0547ZM7.31445 11.9492C7.31445 12.4766 7.69531 12.8477 8.24219 12.8477H10.918V15.5332C10.918 16.0703 11.2891 16.4512 11.8164 16.4512C12.3633 16.4512 12.7441 16.0703 12.7441 15.5332V12.8477H15.4297C15.9668 12.8477 16.3379 12.4766 16.3379 11.9492C16.3379 11.4023 15.9668 11.0215 15.4297 11.0215H12.7441V8.3457C12.7441 7.79883 12.3633 7.42773 11.8164 7.42773C11.2891 7.42773 10.918 7.79883 10.918 8.3457V11.0215H8.24219C7.69531 11.0215 7.31445 11.4023 7.31445 11.9492Z" fill="#007AFF"/>
</svg>
