<svg width="28" height="28" viewBox="0 0 28 28" fill="none"
  xmlns="http://www.w3.org/2000/svg" class="OfVTMq_logo">
  <path fill-rule="evenodd" clip-rule="evenodd" d="M1.167 4.372c0-.804 0-1.207.156-1.53.137-.286.358-.528.637-.697.316-.192.735-.25 1.575-.364L15.515.153c1.087-.148 1.63-.222 2.053-.066.37.137.68.391.876.72.223.374.223.895.223 1.936v22.514c0 1.041 0 1.562-.223 1.936a1.702 1.702 0 0 1-.876.72c-.423.156-.966.082-2.054-.066L3.535 26.22c-.84-.114-1.26-.172-1.575-.364-.279-.17-.5-.411-.637-.697-.156-.323-.156-.726-.156-1.53V4.372ZM14 11.962c0-.244 0-.367.041-.463a.459.459 0 0 1 .167-.205c.082-.055.191-.066.41-.088l.975-.1c.257-.025.385-.038.484.01.087.042.16.115.205.209.051.106.051.25.051.539v4.272c0 .289 0 .433-.051.54a.446.446 0 0 1-.205.209c-.099.047-.227.034-.484.008l-.976-.1c-.218-.021-.327-.032-.409-.087a.459.459 0 0 1-.167-.205C14 16.405 14 16.282 14 16.037v-4.074Zm7.96-9.045h-1.543v22.75h1.542c.89 0 1.334 0 1.674-.174a1.59 1.59 0 0 0 .694-.696c.173-.34.173-.786.173-1.678V5.465c0-.892 0-1.338-.173-1.679a1.59 1.59 0 0 0-.694-.696c-.34-.173-.784-.173-1.674-.173Z" fill="white"></path>
</svg>