<svg width="28" height="27" viewBox="0 0 28 27" fill="none" xmlns="http://www.w3.org/2000/svg">
<path d="M0.40625 22.4922C0.40625 24.9062 1.73047 26.2305 4.23828 26.2305H23.75C26.293 26.2305 27.5938 24.9297 27.5938 22.4219V4.66797C27.5938 2.16016 26.293 0.859375 23.75 0.859375H9.59375C7.0625 0.859375 5.76172 2.16016 5.76172 4.66797V9.90625H3.16016C1.42578 9.90625 0.40625 10.8789 0.40625 12.5195V22.4922ZM7.70703 23.9336C7.92969 23.4883 8.04688 22.9844 8.04688 22.3867V4.86719C8.04688 3.73047 8.64453 3.15625 9.73438 3.15625H23.6094C24.7109 3.15625 25.2969 3.73047 25.2969 4.86719V22.2227C25.2969 23.3594 24.7109 23.9336 23.6094 23.9336H7.70703ZM11.0234 8.16016H22.3438C22.7891 8.16016 23.1289 7.80859 23.1289 7.36328C23.1289 6.92969 22.7891 6.58984 22.3438 6.58984H11.0234C10.5664 6.58984 10.2266 6.92969 10.2266 7.36328C10.2266 7.80859 10.5664 8.16016 11.0234 8.16016ZM11.0234 12.2031H22.3438C22.7891 12.2031 23.1289 11.8633 23.1289 11.4297C23.1289 10.9961 22.7891 10.6445 22.3438 10.6445H11.0234C10.5664 10.6445 10.2266 10.9961 10.2266 11.4297C10.2266 11.8633 10.5664 12.2031 11.0234 12.2031ZM2.70312 22.3867V12.9414C2.70312 12.4844 2.98438 12.2031 3.44141 12.2031H5.76172V22.3867C5.76172 23.2891 5.09375 23.9336 4.23828 23.9336C3.37109 23.9336 2.70312 23.2656 2.70312 22.3867ZM11.6914 20.3594H14.6094C15.5234 20.3594 16.0742 19.8086 16.0742 18.8945V16.1758C16.0742 15.2617 15.5234 14.7109 14.6094 14.7109H11.6914C10.7656 14.7109 10.2148 15.2617 10.2148 16.1758V18.8945C10.2148 19.8086 10.7656 20.3594 11.6914 20.3594ZM18.1602 16.2695H22.332C22.7773 16.2695 23.1172 15.9297 23.1172 15.4961C23.1172 15.0508 22.7773 14.7109 22.332 14.7109H18.1602C17.7031 14.7109 17.3633 15.0508 17.3633 15.4961C17.3633 15.9297 17.7031 16.2695 18.1602 16.2695ZM18.1602 20.3594H22.332C22.7773 20.3594 23.1172 20.0195 23.1172 19.5859C23.1172 19.1523 22.7773 18.8008 22.332 18.8008H18.1602C17.7031 18.8008 17.3633 19.1523 17.3633 19.5859C17.3633 20.0195 17.7031 20.3594 18.1602 20.3594Z" fill="#007AFF"/>
</svg>
