<svg width="19" height="19" viewBox="0 0 19 19" fill="none" xmlns="http://www.w3.org/2000/svg">
<path d="M9.73334 18.7334C14.6992 18.7334 18.8124 14.6289 18.8124 9.6543C18.8124 4.68848 14.6992 0.575195 9.72455 0.575195C4.75873 0.575195 0.654236 4.68848 0.654236 9.6543C0.654236 14.6289 4.76752 18.7334 9.73334 18.7334ZM9.73334 16.9492C5.69037 16.9492 2.4472 13.6973 2.4472 9.6543C2.4472 5.61133 5.68158 2.36816 9.72455 2.36816C13.7675 2.36816 17.0195 5.61133 17.0283 9.6543C17.0283 13.6973 13.7763 16.9492 9.73334 16.9492ZM13.1699 7.29004L13.8027 6.65723C14.1015 6.34961 14.1191 5.98926 13.8378 5.70801L13.6269 5.49707C13.3456 5.21582 12.9853 5.24219 12.6865 5.54102L12.0536 6.17383L13.1699 7.29004ZM7.01752 13.4248L12.6425 7.81738L11.5175 6.69238L5.90131 12.3086L5.41791 13.4775C5.31244 13.7412 5.56732 13.9697 5.80463 13.8906L7.01752 13.4248Z" fill="#007AFF"/>
</svg>
