<?xml version="1.0" encoding="UTF-8"?>
<!--Generator: Apple Native CoreSVG 175.5-->
<!DOCTYPE svg
PUBLIC "-//W3C//DTD SVG 1.1//EN"
       "http://www.w3.org/Graphics/SVG/1.1/DTD/svg11.dtd">
<svg version="1.1" xmlns="http://www.w3.org/2000/svg" xmlns:xlink="http://www.w3.org/1999/xlink" width="19.9219" height="19.9316">
 <g>
  <rect height="19.9316" opacity="0" width="19.9219" x="0" y="0"/>
  <path d="M9.96094 19.9219C15.4102 19.9219 19.9219 15.4004 19.9219 9.96094C19.9219 4.51172 15.4004 0 9.95117 0C4.51172 0 0 4.51172 0 9.96094C0 15.4004 4.52148 19.9219 9.96094 19.9219Z" fill="#000000" fill-opacity="0.85"/>
  <path d="M9.95117 18.4375C7.71484 18.4375 5.44922 17.5195 3.95508 15.9277C5.00977 14.2676 7.30469 13.291 9.95117 13.291C12.5781 13.291 14.8926 14.248 15.957 15.9277C14.4531 17.5195 12.1973 18.4375 9.95117 18.4375ZM9.95117 11.6309C8.07617 11.6113 6.60156 10.0488 6.60156 7.94922C6.5918 5.97656 8.08594 4.33594 9.95117 4.33594C11.8262 4.33594 13.3008 5.97656 13.3008 7.94922C13.3008 10.0488 11.8359 11.6504 9.95117 11.6309Z" fill="#ffffff"/>
 </g>
</svg>
