<svg width="24" height="24" viewBox="0 0 24 24" fill="none"
  xmlns="http://www.w3.org/2000/svg">
  <path d="M11.9238 4C12.7441 4 13.5254 4.12695 14.2676 4.35156L15.1172 2.29102C14.1113 1.94922 13.0371 1.76367 11.9238 1.76367C10.8105 1.76367 9.73633 1.94922 8.73047 2.29102L9.58984 4.35156C10.332 4.12695 11.1133 4 11.9238 4ZM18.9551 8.22852L21.0156 7.37891C20.0293 5.43555 18.4375 3.84375 16.4941 2.85742L15.6445 4.91797C17.0605 5.66016 18.2129 6.8125 18.9551 8.22852ZM8.20312 4.91797L7.35352 2.86719C5.41992 3.85352 3.82812 5.43555 2.8418 7.37891L4.90234 8.23828C5.64453 6.82227 6.79688 5.66016 8.20312 4.91797ZM19.8828 11.9492C19.8828 12.7598 19.7559 13.5508 19.5312 14.293L21.5918 15.1523C21.9336 14.1367 22.1191 13.0625 22.1191 11.9492C22.1191 10.8359 21.9336 9.76172 21.5918 8.74609L19.5312 9.60547C19.7559 10.3477 19.8828 11.1387 19.8828 11.9492ZM3.99414 11.9492C3.99414 11.1387 4.11133 10.3477 4.33594 9.61523L2.26562 8.75586C1.93359 9.76172 1.74805 10.8359 1.74805 11.9492C1.74805 13.0625 1.93359 14.1367 2.27539 15.1426L4.33594 14.2832C4.12109 13.5508 3.99414 12.7598 3.99414 11.9492ZM15.6445 18.9805L16.4941 21.041C18.4375 20.0449 20.0293 18.4629 21.0156 16.5195L18.9648 15.6699C18.2227 17.0859 17.0605 18.2383 15.6445 18.9805ZM4.91211 15.6699L2.8418 16.5195C3.83789 18.4629 5.41992 20.0449 7.35352 21.0312L8.21289 18.9707C6.79688 18.2285 5.64453 17.0762 4.91211 15.6699ZM11.9336 19.8984C11.1133 19.8984 10.332 19.7715 9.58984 19.5469L8.73047 21.6074C9.73633 21.9492 10.8203 22.1348 11.9336 22.1348C13.0469 22.1348 14.1211 21.9492 15.127 21.6172L14.2676 19.5566C13.5254 19.7715 12.7441 19.8984 11.9336 19.8984Z" fill="#3C3C43" fill-opacity="0.6"/>
</svg>
