<svg width="24" height="24" viewBox="0 0 24 24" fill="none" xmlns="http://www.w3.org/2000/svg">
<path d="M11.8359 22.0371C17.3535 22.0371 21.9238 17.4766 21.9238 11.9492C21.9238 6.43164 17.3535 1.86133 11.8262 1.86133C6.30859 1.86133 1.74805 6.43164 1.74805 11.9492C1.74805 17.4766 6.31836 22.0371 11.8359 22.0371ZM11.8359 20.0547C7.34375 20.0547 3.74023 16.4414 3.74023 11.9492C3.74023 7.45703 7.33398 3.85352 11.8262 3.85352C16.3184 3.85352 19.9316 7.45703 19.9414 11.9492C19.9414 16.4414 16.3281 20.0547 11.8359 20.0547ZM11.8457 15.7773C13.9551 15.7773 15.6738 14.0586 15.6738 11.9297C15.6738 9.82031 13.9551 8.10156 11.8457 8.10156C9.7168 8.10156 7.99805 9.82031 7.99805 11.9297C7.99805 14.0586 9.7168 15.7773 11.8457 15.7773Z" fill="#007AFF"/>
</svg>
