<svg width="21" height="22" viewBox="0 0 21 22" fill="none" xmlns="http://www.w3.org/2000/svg">
<path d="M10.8359 21.0371C16.3535 21.0371 20.9238 16.4766 20.9238 10.9492C20.9238 5.43164 16.3535 0.861328 10.8262 0.861328C5.30859 0.861328 0.748047 5.43164 0.748047 10.9492C0.748047 16.4766 5.31836 21.0371 10.8359 21.0371ZM7.50586 15.2168C6.98828 15.2168 6.58789 14.8066 6.58789 14.2793C6.58789 14.0449 6.68555 13.8203 6.86133 13.6445L9.53711 10.959L6.86133 8.2832C6.68555 8.10742 6.58789 7.88281 6.58789 7.63867C6.58789 7.12109 6.98828 6.73047 7.50586 6.73047C7.76953 6.73047 7.98438 6.80859 8.15039 6.99414L10.8359 9.66992L13.541 6.98438C13.7266 6.79883 13.9316 6.71094 14.1855 6.71094C14.7031 6.71094 15.1035 7.11133 15.1035 7.62891C15.1035 7.87305 15.0156 8.08789 14.8301 8.27344L12.1543 10.959L14.8301 13.6348C15.0059 13.8203 15.0938 14.0352 15.0938 14.2793C15.0938 14.8066 14.6934 15.2168 14.1758 15.2168C13.9121 15.2168 13.6875 15.1094 13.502 14.9434L10.8359 12.2676L8.17969 14.9434C7.99414 15.1191 7.76953 15.2168 7.50586 15.2168Z" fill="#3C3C43" fill-opacity="0.3"/>
</svg>
