<svg width="28" height="28" viewBox="0 0 28 28" fill="none" xmlns="http://www.w3.org/2000/svg">
<path d="M14.105 26.21C20.7369 26.21 26.2121 20.7273 26.2121 14.105C26.2121 7.47312 20.7273 2 14.0954 2C7.47523 2 2 7.47312 2 14.105C2 20.7273 7.48484 26.21 14.105 26.21ZM14.105 23.8255C8.71085 23.8255 4.39412 19.4991 4.39412 14.105C4.39412 8.71085 8.70124 4.38452 14.0954 4.38452C19.4895 4.38452 23.8276 8.71085 23.8276 14.105C23.8276 19.4991 19.4991 23.8255 14.105 23.8255Z" fill="#34C759"/>
<path d="M12.8368 19.6756C13.2573 19.6756 13.6234 19.467 13.8725 19.0805L19.1141 10.8931C19.262 10.6397 19.4038 10.3672 19.4038 10.103C19.4038 9.51663 18.8844 9.12616 18.3332 9.12616C17.9896 9.12616 17.6713 9.33054 17.4233 9.71679L12.7963 17.1502L10.6185 14.3729C10.3309 14.0021 10.0541 13.8873 9.70065 13.8873C9.13557 13.8873 8.68018 14.3459 8.68018 14.9206C8.68018 15.2037 8.78987 15.4583 8.98346 15.7126L11.7542 19.089C12.0683 19.4884 12.4121 19.6756 12.8368 19.6756Z" fill="#34C759"/>
</svg>